<?xml version="1.0" encoding="utf-8"?>
<!-- Generator: Adobe Illustrator 21.0.0, SVG Export Plug-In . SVG Version: 6.00 Build 0)  -->
<svg version="1.1" id="Layer_1" xmlns="http://www.w3.org/2000/svg" xmlns:xlink="http://www.w3.org/1999/xlink" x="0px" y="0px"
	 viewBox="0 0 15 16" style="enable-background:new 0 0 15 16;" xml:space="preserve">
<style type="text/css">
	.st0{fill:#b3b3b3;}
</style>
<path class="st0" d="M11.7,8.8H7.8v4h3.8V8.8z M10.9,0v1.6H4.8V0H3.2v1.6H2.5c-0.9,0-1.5,0.7-1.5,1.6l0,11.2c0,0.9,0.7,1.6,1.5,1.6
	h10.7c0.8,0,1.5-0.7,1.5-1.6V3.2c0-0.9-0.7-1.6-1.5-1.6h-0.8V0C12.4,0,10.9,0,10.9,0z M13.2,14.4H2.5V5.6h10.7
	C13.2,5.6,13.2,14.4,13.2,14.4z"/>
</svg>
